<svg width="1294" height="602" viewBox="0 0 1294 602" fill="none" xmlns="http://www.w3.org/2000/svg">
<path d="M0 554C0 570.802 0 579.202 3.2698 585.62C6.14601 591.265 10.7354 595.854 16.3803 598.73C22.7976 602 31.1984 602 48 602H1231.06C1259.14 602 1273.18 602 1281.13 596.119C1288.06 590.992 1292.45 583.131 1293.18 574.541C1294.02 564.687 1286.66 552.734 1271.93 528.827L1019.93 119.682C1015.37 112.278 1013.09 108.576 1010.03 105.764C1007.32 103.273 1004.18 101.302 1000.76 99.9489C996.895 98.4211 992.57 97.981 983.919 97.1009L52.8583 2.37764C34.5456 0.51456 25.3892 -0.41698 18.3101 2.57826C12.092 5.20919 6.94315 9.86075 3.69637 15.7806C0 22.5203 0 31.7239 0 50.1312V554Z" fill="#549EFF"/>
</svg>
