<svg width="15" height="15" viewBox="0 0 15 15" fill="none" xmlns="http://www.w3.org/2000/svg">
<rect width="15" height="15" fill="white"/>
<path d="M13.0248 2.88123C12.7056 2.56186 12.3266 2.30851 11.9094 2.13566C11.4923 1.96281 11.0451 1.87384 10.5936 1.87384C10.142 1.87384 9.6949 1.96281 9.27773 2.13566C8.86057 2.30851 8.48155 2.56186 8.16233 2.88123L7.49983 3.54373L6.83733 2.88123C6.19252 2.23642 5.31798 1.87417 4.40608 1.87417C3.49418 1.87417 2.61964 2.23642 1.97483 2.88123C1.33002 3.52604 0.967773 4.40059 0.967773 5.31248C0.967773 6.22438 1.33002 7.09892 1.97483 7.74373L2.63733 8.40623L7.49983 13.2687L12.3623 8.40623L13.0248 7.74373C13.3442 7.42451 13.5976 7.04549 13.7704 6.62833C13.9433 6.21117 14.0322 5.76404 14.0322 5.31248C14.0322 4.86093 13.9433 4.4138 13.7704 3.99663C13.5976 3.57947 13.3442 3.20045 13.0248 2.88123V2.88123Z" stroke="#DD333D" stroke-linecap="round" stroke-linejoin="round"/>
</svg>
