<svg width="14" height="15" viewBox="0 0 14 15" fill="none" xmlns="http://www.w3.org/2000/svg">
<path fill-rule="evenodd" clip-rule="evenodd" d="M3.12408 14.2429H0.211426V5.50488H3.12408V14.2429Z" fill="#0A142F"/>
<path fill-rule="evenodd" clip-rule="evenodd" d="M1.65909 3.56311H1.64255C0.773348 3.56311 0.211426 2.91554 0.211426 2.10625C0.211426 1.27984 0.790462 0.650391 1.67616 0.650391C2.56185 0.650391 3.10728 1.27984 3.12408 2.10625C3.12408 2.91554 2.56185 3.56311 1.65909 3.56311Z" fill="#0A142F"/>
<path fill-rule="evenodd" clip-rule="evenodd" d="M13.8038 14.2426H10.9417V9.67518C10.9417 8.52794 10.5275 7.74509 9.49135 7.74509C8.7006 7.74509 8.2296 8.27284 8.02274 8.78258C7.94706 8.96526 7.92849 9.21979 7.92849 9.47494V14.2429H5.06592C5.06592 14.2429 5.10364 6.50668 5.06592 5.70558H7.92849V6.91482C8.30837 6.33351 8.98874 5.50488 10.5084 5.50488C12.3919 5.50488 13.8039 6.72534 13.8039 9.34762L13.8038 14.2426Z" fill="#0A142F"/>
</svg>
