<?xml version="1.0" standalone="no"?>
<!DOCTYPE svg PUBLIC "-//W3C//DTD SVG 20010904//EN"
 "http://www.w3.org/TR/2001/REC-SVG-20010904/DTD/svg10.dtd">
<svg version="1.0" xmlns="http://www.w3.org/2000/svg"
 width="512.000000pt" height="512.000000pt" viewBox="0 0 512.000000 512.000000"
 preserveAspectRatio="xMidYMid meet">

<g transform="translate(0.000000,512.000000) scale(0.100000,-0.100000)"
fill="currentColor" stroke="none">
<path d="M452 5100 c-109 -29 -187 -74 -272 -160 -87 -86 -131 -163 -160 -276
-20 -76 -20 -118 -20 -2104 0 -1986 0 -2028 20 -2104 29 -113 73 -190 160
-277 53 -54 96 -86 147 -112 146 -72 34 -68 1838 -65 l1620 3 65 23 c242 88
395 290 408 542 14 294 -185 549 -480 614 l-28 6 0 970 0 970 63 46 c97 72
284 157 502 230 242 80 296 107 395 201 199 187 336 501 395 904 21 145 20
165 -10 194 -33 34 -68 32 -159 -10 -180 -84 -365 -127 -550 -129 l-120 -1
-12 65 c-44 236 -228 427 -459 475 -60 13 -300 15 -1670 14 -1543 0 -1603 -1
-1673 -19z m298 -180 c80 -31 156 -93 201 -163 50 -77 69 -142 69 -234 0 -145
-65 -270 -186 -353 -49 -35 -150 -70 -199 -70 -106 0 -160 -85 -95 -150 20
-20 37 -20 830 -20 446 0 810 -2 810 -5 0 -2 -22 -37 -49 -77 -108 -162 -195
-375 -227 -558 -25 -145 -15 -390 21 -529 15 -56 35 -121 44 -144 l17 -41 -81
-160 c-95 -190 -173 -390 -223 -574 l-36 -132 -445 0 c-422 0 -448 -1 -478
-19 -39 -24 -51 -67 -29 -109 8 -16 23 -32 31 -36 9 -3 243 -6 520 -6 l503 0
109 78 c222 160 303 222 317 244 8 13 17 62 21 113 7 97 34 317 40 323 2 2 37
-8 77 -22 364 -125 816 22 1078 353 36 45 93 130 128 189 l62 106 0 -867 0
-867 -1510 0 c-1490 0 -1510 0 -1530 -20 -65 -65 -11 -150 95 -150 44 0 149
-34 190 -62 86 -60 143 -134 175 -229 18 -52 21 -81 18 -155 -3 -79 -8 -100
-38 -160 -128 -261 -464 -323 -673 -125 -30 28 -66 73 -80 99 -60 111 -57 -21
-57 2172 0 2193 -3 2061 57 2172 31 58 113 138 171 167 108 55 245 63 352 21z
m3009 19 c160 -37 299 -178 327 -333 l7 -39 -94 7 c-367 26 -446 28 -608 17
-202 -13 -307 -31 -429 -70 -204 -67 -378 -172 -540 -326 l-100 -95 -652 0
-651 0 39 48 c92 110 132 223 132 369 0 151 -40 268 -129 381 l-41 52 1347 0
c873 0 1363 -4 1392 -11z m1166 -476 c-17 -97 -68 -283 -105 -375 -74 -191
-184 -344 -301 -419 -28 -18 -131 -59 -237 -94 -103 -35 -239 -86 -302 -115
-63 -29 -129 -55 -146 -57 -46 -7 -105 13 -170 57 -69 47 -92 49 -133 14 -62
-52 -28 -129 81 -185 l40 -20 -63 -62 c-78 -77 -137 -156 -194 -261 -24 -45
-55 -96 -68 -115 -23 -34 -24 -34 -93 -32 -94 3 -201 26 -310 67 -123 46 -152
44 -182 -13 -31 -58 6 -105 113 -146 89 -34 218 -67 262 -67 18 0 33 -5 33
-10 0 -18 -124 -102 -215 -146 -115 -54 -187 -73 -306 -81 -107 -6 -214 12
-307 53 -60 26 -58 12 -15 162 49 174 80 238 162 335 179 214 378 410 546 537
330 251 644 375 1168 463 223 38 239 45 239 113 0 44 -37 84 -77 84 -49 0
-382 -61 -520 -95 -353 -87 -627 -215 -900 -421 -248 -186 -530 -480 -748
-776 -44 -60 -74 -93 -78 -85 -16 29 -39 209 -39 302 0 220 62 439 176 623
l48 76 12 -66 c16 -84 26 -103 64 -116 39 -14 83 1 100 33 11 20 11 45 0 139
-7 63 -10 140 -7 172 7 58 8 60 89 137 86 81 203 165 298 212 59 30 181 78
185 73 2 -2 -3 -28 -11 -58 -18 -66 -29 -198 -20 -234 7 -27 51 -56 85 -56 11
0 32 10 47 23 23 20 27 34 35 108 9 93 30 175 61 231 18 32 27 37 67 42 108
12 247 17 310 11 l69 -7 -41 -59 c-59 -85 -54 -145 12 -170 49 -19 79 -2 127
72 25 38 67 87 92 110 41 36 51 40 82 35 19 -3 121 -8 225 -12 280 -9 474 13
665 76 47 15 89 28 93 29 4 1 5 -16 2 -36z m-2865 -2164 c-5 -25 -14 -94 -20
-155 -21 -212 -12 -188 -96 -251 -41 -31 -77 -53 -80 -50 -7 6 45 160 91 272
49 119 105 238 110 234 2 -2 0 -25 -5 -50z m1742 -1298 c74 -26 124 -58 181
-120 215 -231 100 -615 -208 -695 -52 -14 -221 -16 -1407 -16 l-1348 0 41 52
c88 112 129 231 129 375 0 146 -48 282 -133 379 l-39 44 1365 0 c1313 0 1366
-1 1419 -19z"/>
<path d="M712 3390 c-44 -41 -35 -110 18 -137 35 -18 887 -19 925 -1 33 15 58
62 49 91 -3 12 -16 32 -27 45 l-20 22 -462 0 c-450 0 -462 -1 -483 -20z"/>
<path d="M723 2971 c-39 -24 -51 -67 -29 -109 8 -16 23 -32 31 -36 9 -3 222
-6 474 -6 l458 0 20 23 c30 32 36 62 19 95 -27 51 -33 52 -504 52 -414 0 -439
-1 -469 -19z"/>
<path d="M714 2536 c-21 -18 -28 -32 -28 -61 0 -29 7 -43 28 -61 l27 -24 454
0 454 0 27 24 c39 33 39 89 0 122 l-27 24 -454 0 -454 0 -27 -24z"/>
<path d="M712 2110 c-29 -27 -37 -63 -20 -96 24 -52 35 -54 416 -54 389 0 400
2 420 60 13 35 8 56 -21 88 l-20 22 -377 0 c-364 0 -377 -1 -398 -20z"/>
</g>
</svg>
