<?xml version="1.0" standalone="no"?>
<!DOCTYPE svg PUBLIC "-//W3C//DTD SVG 20010904//EN"
 "http://www.w3.org/TR/2001/REC-SVG-20010904/DTD/svg10.dtd">
<svg version="1.0" xmlns="http://www.w3.org/2000/svg"
 width="512.000000pt" height="512.000000pt" viewBox="0 0 512.000000 512.000000"
 preserveAspectRatio="xMidYMid meet">

<g transform="translate(0.000000,512.000000) scale(0.100000,-0.100000)"
fill="currentColor" stroke="none">
<path d="M1589 4550 c-412 -52 -746 -361 -831 -768 -26 -125 -21 -316 12 -437
98 -362 402 -641 770 -705 83 -15 248 -15 329 0 211 38 382 130 532 287 415
435 337 1135 -165 1468 -187 123 -432 182 -647 155z m329 -226 c141 -41 245
-106 347 -216 277 -299 271 -756 -13 -1051 -214 -222 -551 -291 -842 -173
-149 61 -305 202 -378 343 -59 115 -83 201 -89 323 -9 163 23 291 106 435 45
78 188 220 271 267 179 104 396 130 598 72z"/>
<path d="M3628 4250 c-77 -9 -179 -41 -253 -78 -384 -191 -538 -657 -346
-1047 186 -376 653 -535 1035 -351 151 73 289 209 358 355 l32 67 81 0 c65 0
91 5 137 26 270 124 286 488 26 629 -60 32 -68 34 -158 33 -52 -1 -105 -3
-117 -5 -18 -3 -33 10 -76 66 -168 219 -448 338 -719 305z m197 -206 c28 -3
54 -8 58 -11 12 -7 -78 -168 -134 -239 -92 -116 -225 -199 -365 -229 -76 -16
-220 -20 -228 -6 -9 13 21 116 50 174 54 106 139 193 244 250 79 42 119 56
202 66 62 8 76 8 173 -5z m353 -207 c70 -92 112 -196 126 -311 l6 -49 -54 6
c-86 9 -161 50 -249 138 l-78 77 44 69 c25 37 56 92 71 121 l27 53 34 -26 c18
-15 51 -50 73 -78z m444 -173 c61 -45 79 -130 42 -195 -22 -39 -96 -81 -134
-77 -23 3 -24 6 -26 93 -2 50 -8 112 -14 138 -6 27 -7 53 -4 59 10 16 107 4
136 -18z m-797 -146 c87 -107 254 -208 378 -231 l68 -12 -32 -65 c-22 -43 -58
-91 -108 -141 -120 -120 -238 -170 -406 -170 -179 0 -327 69 -445 206 -42 48
-102 162 -115 216 l-6 26 118 6 c182 9 338 63 458 156 28 22 53 40 57 40 3 1
18 -14 33 -31z"/>
<path d="M3615 2390 c-299 -25 -560 -151 -773 -375 l-98 -102 -59 50 c-33 28
-96 74 -140 102 -519 339 -1183 334 -1703 -12 -120 -79 -320 -280 -401 -403
-159 -240 -246 -488 -273 -787 -14 -152 -7 -196 35 -227 l28 -21 1454 -3
c1149 -2 1461 0 1491 10 25 9 45 24 58 47 18 32 19 41 8 177 -7 80 -13 150
-15 157 -1 9 181 13 840 17 l842 5 23 23 c21 21 23 31 22 130 -5 455 -278 888
-692 1096 -176 89 -429 134 -647 116z m315 -217 c191 -38 365 -130 505 -268
172 -168 270 -360 309 -601 l13 -84 -791 0 -791 0 -24 68 c-41 116 -109 248
-187 364 -86 127 -87 111 12 217 239 258 602 374 954 304z m-1985 -79 c456
-84 829 -394 1003 -834 57 -144 115 -436 88 -446 -6 -2 -609 -3 -1341 -2
l-1330 3 3 50 c15 219 111 488 246 685 64 95 219 251 316 319 192 135 427 220
675 245 67 7 255 -5 340 -20z"/>
</g>
</svg>
